# xmcd
#
# Track frame offsets:
#	182
#	11942
#	26507
#	39065
#	50815
#	60727
#	73197
#	86545
#	100737
#	123510
#	136185
#	149045
#	161212
#	167242
#	182012
#	195885
#	210905
#	224630
#
# Disc length: 3154
#
# Revision: 4
# Processed by: cddbd v1.5.1PL0 Copyright (c) Steve Scherf et al.
# Submitted via: ExactAudioCopy v0.90b4
# Normalized: r3:DSETVAR1
#
DISCID=090c5012
DTITLE=Various Artist - Blues and Soul [CD3]
DYEAR=1994
DGENRE=Blues and Soul
TTITLE0=The Del Vikings - Come Along With Me
TTITLE1=Rae Earth - Love Is Here And Now You're Gone
TTITLE2=Gladys Knight and The Pips - Come See About Me
TTITLE3=Clarence Carter - Band Of Gold
TTITLE4=John Lee Hooker - Dimples
TTITLE5=Howlin' Wolf - Little Baby
TTITLE6=Muddy Waters - Close To You
TTITLE7=Ray Charles - Walkin' And Talkin'
TTITLE8=B.B. King - Everday I Have The Blues
TTITLE9=Billie Holiday - God Bless The Child (Live)
TTITLE10=Sonny Boy Williamson - Keep It To Yourself
TTITLE11=Jimmy Reed - Little Rain
TTITLE12=Leadbelly - Big Fat Mama
TTITLE13=Joe Simon - Say
TTITLE14=Little Walter - You're So Fine
TTITLE15=Elmor James - It Hurts Me Too
TTITLE16=Memphis Slim - I Guess I'm A Fool
TTITLE17=Buddy Guy - Goin' Home
EXTD=
EXTT0=
EXTT1=
EXTT2=
EXTT3=
EXTT4=
EXTT5=
EXTT6=
EXTT7=
EXTT8=
EXTT9=
EXTT10=
EXTT11=
EXTT12=
EXTT13=
EXTT14=
EXTT15=
EXTT16=
EXTT17=
PLAYORDER=
